<svg width="251" height="80" viewBox="0 0 251 80" fill="none" xmlns="http://www.w3.org/2000/svg">
<g clip-path="url(#clip0_114_6414)">
<path d="M19.5001 55C18.6763 53.767 17.5605 52.7567 16.2521 52.0588C14.9436 51.361 13.483 50.9973 12.0001 51C10.5198 50.9991 9.06209 51.3637 7.75652 52.0615C6.45095 52.7593 5.33787 53.7687 4.51611 55" stroke="white" stroke-width="1.5" stroke-linecap="round" stroke-linejoin="round"/>
<path d="M11.5001 51C10.7207 52.2486 10.1069 53.5932 9.67407 55" stroke="white" stroke-width="1.5" stroke-linecap="round" stroke-linejoin="round"/>
<path d="M12.5 51C13.2801 52.2485 13.8945 53.5931 14.328 55" stroke="white" stroke-width="1.5" stroke-linecap="round" stroke-linejoin="round"/>
<path d="M19.5001 65C18.6763 66.233 17.5605 67.2434 16.2521 67.9412C14.9436 68.639 13.483 69.0027 12.0001 69C10.5198 69.0009 9.06209 68.6363 7.75652 67.9385C6.45095 67.2407 5.33787 66.2313 4.51611 65" stroke="white" stroke-width="1.5" stroke-linecap="round" stroke-linejoin="round"/>
<path d="M11.5001 69C10.7207 67.7514 10.1069 66.4068 9.67407 65" stroke="white" stroke-width="1.5" stroke-linecap="round" stroke-linejoin="round"/>
<path d="M12.5 69C13.2801 67.7515 13.8945 66.4069 14.328 65" stroke="white" stroke-width="1.5" stroke-linecap="round" stroke-linejoin="round"/>
<path d="M2 58L3 62L4.5 58L6 62L7 58" stroke="white" stroke-width="1.5" stroke-linecap="round" stroke-linejoin="round"/>
<path d="M17 58L18 62L19.5 58L21 62L22 58" stroke="white" stroke-width="1.5" stroke-linecap="round" stroke-linejoin="round"/>
<path d="M9.5 58L10.5 62L12 58L13.5 62L14.5 58" stroke="white" stroke-width="1.5" stroke-linecap="round" stroke-linejoin="round"/>
</g>
<path d="M44.5511 69L40.6989 55.9091H43.3324L45.8977 65.5227H46.0256L48.5994 55.9091H51.233L53.7898 65.4801H53.9176L56.4659 55.9091H59.0994L55.2557 69H52.6562L49.9972 59.5483H49.8011L47.142 69H44.5511ZM64.3558 69L60.5036 55.9091H63.1371L65.7024 65.5227H65.8303L68.4041 55.9091H71.0376L73.5945 65.4801H73.7223L76.2706 55.9091H78.9041L75.0604 69H72.4609L69.8018 59.5483H69.6058L66.9467 69H64.3558ZM84.1605 69L80.3082 55.9091H82.9418L85.5071 65.5227H85.6349L88.2088 55.9091H90.8423L93.3991 65.4801H93.527L96.0753 55.9091H98.7088L94.8651 69H92.2656L89.6065 59.5483H89.4105L86.7514 69H84.1605ZM101.025 69.1619C100.559 69.1619 100.158 68.9972 99.8232 68.6676C99.4879 68.3324 99.3203 67.929 99.3203 67.4574C99.3203 66.9915 99.4879 66.5937 99.8232 66.2642C100.158 65.929 100.559 65.7614 101.025 65.7614C101.491 65.7614 101.891 65.929 102.227 66.2642C102.562 66.5937 102.729 66.9915 102.729 67.4574C102.729 67.7699 102.65 68.0568 102.491 68.3182C102.337 68.5739 102.133 68.7784 101.877 68.9318C101.621 69.0852 101.337 69.1619 101.025 69.1619ZM108.981 69L105.129 55.9091H107.762L110.327 65.5227H110.455L113.029 55.9091H115.663L118.219 65.4801H118.347L120.896 55.9091H123.529L119.685 69H117.086L114.427 59.5483H114.231L111.572 69H108.981ZM131.191 69.2642C129.901 69.2642 128.79 68.9886 127.859 68.4375C126.933 67.8807 126.217 67.0994 125.711 66.0938C125.211 65.0824 124.961 63.8977 124.961 62.5398C124.961 61.1989 125.211 60.017 125.711 58.9943C126.217 57.9716 126.921 57.1733 127.825 56.5994C128.734 56.0256 129.796 55.7386 131.012 55.7386C131.751 55.7386 132.467 55.8608 133.16 56.1051C133.853 56.3494 134.475 56.733 135.026 57.2557C135.577 57.7784 136.012 58.4574 136.33 59.2926C136.648 60.1222 136.808 61.1307 136.808 62.3182V63.2216H126.401V61.3125H134.31C134.31 60.642 134.174 60.0483 133.901 59.5312C133.629 59.0085 133.245 58.5966 132.751 58.2955C132.262 57.9943 131.688 57.8438 131.029 57.8438C130.313 57.8438 129.688 58.0199 129.154 58.3722C128.626 58.7187 128.217 59.1733 127.927 59.7358C127.643 60.2926 127.501 60.8977 127.501 61.5511V63.0426C127.501 63.9176 127.654 64.6619 127.961 65.2756C128.273 65.8892 128.708 66.358 129.265 66.6818C129.822 67 130.472 67.1591 131.217 67.1591C131.7 67.1591 132.14 67.0909 132.538 66.9545C132.935 66.8125 133.279 66.6023 133.569 66.3239C133.859 66.0455 134.08 65.7017 134.234 65.2926L136.646 65.7273C136.452 66.4375 136.106 67.0597 135.606 67.5938C135.112 68.1222 134.489 68.5341 133.739 68.8295C132.995 69.1193 132.146 69.2642 131.191 69.2642ZM139.839 69V51.5455H142.388V58.0312H142.541C142.689 57.7585 142.902 57.4432 143.18 57.0852C143.459 56.7273 143.845 56.4148 144.339 56.1477C144.834 55.875 145.487 55.7386 146.3 55.7386C147.357 55.7386 148.3 56.0057 149.129 56.5398C149.959 57.0739 150.609 57.8437 151.081 58.8494C151.558 59.8551 151.797 61.0653 151.797 62.4801C151.797 63.8949 151.561 65.108 151.089 66.1193C150.618 67.125 149.97 67.9006 149.146 68.446C148.322 68.9858 147.382 69.2557 146.325 69.2557C145.53 69.2557 144.879 69.1222 144.374 68.8551C143.874 68.5881 143.482 68.2756 143.197 67.9176C142.913 67.5597 142.695 67.2415 142.541 66.9631H142.328V69H139.839ZM142.337 62.4545C142.337 63.375 142.47 64.1818 142.737 64.875C143.004 65.5682 143.391 66.1108 143.896 66.5028C144.402 66.8892 145.021 67.0824 145.754 67.0824C146.516 67.0824 147.152 66.8807 147.663 66.4773C148.175 66.0682 148.561 65.5142 148.822 64.8153C149.089 64.1165 149.223 63.3295 149.223 62.4545C149.223 61.5909 149.092 60.8153 148.831 60.1278C148.575 59.4403 148.189 58.8977 147.672 58.5C147.161 58.1023 146.521 57.9034 145.754 57.9034C145.016 57.9034 144.391 58.0937 143.879 58.4744C143.374 58.8551 142.99 59.3864 142.729 60.0682C142.467 60.75 142.337 61.5455 142.337 62.4545ZM164.468 59.1051L162.158 59.5142C162.062 59.2187 161.908 58.9375 161.698 58.6705C161.494 58.4034 161.215 58.1847 160.863 58.0142C160.511 57.8437 160.07 57.7585 159.542 57.7585C158.82 57.7585 158.218 57.9205 157.735 58.2443C157.252 58.5625 157.011 58.9744 157.011 59.4801C157.011 59.9176 157.173 60.2699 157.496 60.5369C157.82 60.804 158.343 61.0227 159.065 61.1932L161.144 61.6705C162.349 61.9489 163.246 62.3778 163.837 62.9574C164.428 63.5369 164.724 64.2898 164.724 65.2159C164.724 66 164.496 66.6989 164.042 67.3125C163.593 67.9205 162.965 68.3977 162.158 68.7443C161.357 69.0909 160.428 69.2642 159.371 69.2642C157.906 69.2642 156.71 68.9517 155.783 68.3267C154.857 67.696 154.289 66.8011 154.079 65.642L156.542 65.267C156.695 65.9091 157.011 66.3949 157.488 66.7244C157.965 67.0483 158.587 67.2102 159.354 67.2102C160.19 67.2102 160.857 67.0369 161.357 66.6903C161.857 66.3381 162.107 65.9091 162.107 65.4034C162.107 64.9943 161.954 64.6506 161.647 64.3722C161.346 64.0937 160.883 63.8835 160.258 63.7415L158.042 63.2557C156.82 62.9773 155.917 62.5341 155.332 61.9261C154.752 61.3182 154.462 60.5483 154.462 59.6165C154.462 58.8437 154.678 58.1676 155.11 57.5881C155.542 57.0085 156.138 56.5568 156.9 56.233C157.661 55.9034 158.533 55.7386 159.516 55.7386C160.931 55.7386 162.045 56.0455 162.857 56.6591C163.67 57.267 164.207 58.0824 164.468 59.1051ZM167.526 69V55.9091H170.074V69H167.526ZM168.812 53.8892C168.369 53.8892 167.989 53.7415 167.67 53.446C167.358 53.1449 167.202 52.7869 167.202 52.3722C167.202 51.9517 167.358 51.5937 167.67 51.2983C167.989 50.9972 168.369 50.8466 168.812 50.8466C169.256 50.8466 169.634 50.9972 169.946 51.2983C170.264 51.5937 170.423 51.9517 170.423 52.3722C170.423 52.7869 170.264 53.1449 169.946 53.446C169.634 53.7415 169.256 53.8892 168.812 53.8892ZM179.613 55.9091V57.9545H172.462V55.9091H179.613ZM174.38 52.7727H176.928V65.1562C176.928 65.6506 177.002 66.0227 177.15 66.2727C177.298 66.517 177.488 66.6847 177.721 66.7756C177.96 66.8608 178.218 66.9034 178.496 66.9034C178.701 66.9034 178.88 66.8892 179.033 66.8608C179.187 66.8324 179.306 66.8097 179.391 66.7926L179.852 68.8977C179.704 68.9545 179.494 69.0114 179.221 69.0682C178.948 69.1307 178.607 69.1648 178.198 69.1705C177.528 69.1818 176.903 69.0625 176.323 68.8125C175.744 68.5625 175.275 68.1761 174.917 67.6534C174.559 67.1307 174.38 66.4744 174.38 65.6847V52.7727ZM187.933 69.2642C186.643 69.2642 185.533 68.9886 184.601 68.4375C183.675 67.8807 182.959 67.0994 182.453 66.0938C181.953 65.0824 181.703 63.8977 181.703 62.5398C181.703 61.1989 181.953 60.017 182.453 58.9943C182.959 57.9716 183.663 57.1733 184.567 56.5994C185.476 56.0256 186.538 55.7386 187.754 55.7386C188.493 55.7386 189.209 55.8608 189.902 56.1051C190.595 56.3494 191.217 56.733 191.768 57.2557C192.32 57.7784 192.754 58.4574 193.072 59.2926C193.391 60.1222 193.55 61.1307 193.55 62.3182V63.2216H183.143V61.3125H191.053C191.053 60.642 190.916 60.0483 190.643 59.5312C190.371 59.0085 189.987 58.5966 189.493 58.2955C189.004 57.9943 188.43 57.8438 187.771 57.8438C187.055 57.8438 186.43 58.0199 185.896 58.3722C185.368 58.7187 184.959 59.1733 184.669 59.7358C184.385 60.2926 184.243 60.8977 184.243 61.5511V63.0426C184.243 63.9176 184.396 64.6619 184.703 65.2756C185.016 65.8892 185.45 66.358 186.007 66.6818C186.564 67 187.214 67.1591 187.959 67.1591C188.442 67.1591 188.882 67.0909 189.28 66.9545C189.678 66.8125 190.021 66.6023 190.311 66.3239C190.601 66.0455 190.822 65.7017 190.976 65.2926L193.388 65.7273C193.195 66.4375 192.848 67.0597 192.348 67.5938C191.854 68.1222 191.232 68.5341 190.482 68.8295C189.737 69.1193 188.888 69.2642 187.933 69.2642ZM198.056 69.1619C197.59 69.1619 197.19 68.9972 196.854 68.6676C196.519 68.3324 196.352 67.929 196.352 67.4574C196.352 66.9915 196.519 66.5937 196.854 66.2642C197.19 65.929 197.59 65.7614 198.056 65.7614C198.522 65.7614 198.923 65.929 199.258 66.2642C199.593 66.5937 199.761 66.9915 199.761 67.4574C199.761 67.7699 199.681 68.0568 199.522 68.3182C199.369 68.5739 199.164 68.7784 198.908 68.9318C198.653 69.0852 198.369 69.1619 198.056 69.1619ZM208.688 69.2642C207.421 69.2642 206.33 68.9773 205.415 68.4034C204.506 67.8239 203.808 67.0256 203.319 66.0085C202.83 64.9915 202.586 63.8267 202.586 62.5142C202.586 61.1847 202.836 60.0114 203.336 58.9943C203.836 57.9716 204.54 57.1733 205.45 56.5994C206.359 56.0256 207.43 55.7386 208.663 55.7386C209.657 55.7386 210.543 55.9233 211.322 56.2926C212.1 56.6562 212.728 57.1676 213.205 57.8267C213.688 58.4858 213.975 59.2557 214.066 60.1364H211.586C211.45 59.5227 211.137 58.9943 210.648 58.5511C210.165 58.108 209.518 57.8864 208.705 57.8864C207.995 57.8864 207.373 58.0739 206.839 58.4489C206.31 58.8182 205.898 59.3466 205.603 60.0341C205.308 60.7159 205.16 61.5227 205.16 62.4545C205.16 63.4091 205.305 64.233 205.594 64.9261C205.884 65.6193 206.293 66.1562 206.822 66.5369C207.356 66.9176 207.984 67.108 208.705 67.108C209.188 67.108 209.626 67.0199 210.018 66.8438C210.415 66.6619 210.748 66.4034 211.015 66.0682C211.288 65.733 211.478 65.3295 211.586 64.858H214.066C213.975 65.7045 213.7 66.4602 213.239 67.125C212.779 67.7898 212.163 68.3125 211.39 68.6932C210.623 69.0739 209.722 69.2642 208.688 69.2642ZM222.305 69.2642C221.078 69.2642 220.007 68.983 219.092 68.4205C218.178 67.858 217.467 67.071 216.962 66.0597C216.456 65.0483 216.203 63.8665 216.203 62.5142C216.203 61.1562 216.456 59.9687 216.962 58.9517C217.467 57.9347 218.178 57.1449 219.092 56.5824C220.007 56.0199 221.078 55.7386 222.305 55.7386C223.533 55.7386 224.604 56.0199 225.518 56.5824C226.433 57.1449 227.143 57.9347 227.649 58.9517C228.155 59.9687 228.408 61.1562 228.408 62.5142C228.408 63.8665 228.155 65.0483 227.649 66.0597C227.143 67.071 226.433 67.858 225.518 68.4205C224.604 68.983 223.533 69.2642 222.305 69.2642ZM222.314 67.125C223.109 67.125 223.768 66.9148 224.291 66.4943C224.814 66.0739 225.2 65.5142 225.45 64.8153C225.706 64.1165 225.834 63.3466 225.834 62.5057C225.834 61.6705 225.706 60.9034 225.45 60.2045C225.2 59.5 224.814 58.9347 224.291 58.5085C223.768 58.0824 223.109 57.8693 222.314 57.8693C221.513 57.8693 220.848 58.0824 220.32 58.5085C219.797 58.9347 219.408 59.5 219.152 60.2045C218.902 60.9034 218.777 61.6705 218.777 62.5057C218.777 63.3466 218.902 64.1165 219.152 64.8153C219.408 65.5142 219.797 66.0739 220.32 66.4943C220.848 66.9148 221.513 67.125 222.314 67.125ZM231.252 69V55.9091H233.698V58.0398H233.86C234.133 57.3182 234.579 56.7557 235.198 56.3523C235.817 55.9432 236.559 55.7386 237.423 55.7386C238.298 55.7386 239.031 55.9432 239.621 56.3523C240.218 56.7614 240.658 57.3239 240.942 58.0398H241.079C241.391 57.3409 241.888 56.7841 242.57 56.3693C243.252 55.9489 244.065 55.7386 245.008 55.7386C246.195 55.7386 247.164 56.1108 247.914 56.8551C248.67 57.5994 249.048 58.7216 249.048 60.2216V69H246.499V60.4602C246.499 59.5739 246.258 58.9318 245.775 58.5341C245.292 58.1364 244.715 57.9375 244.045 57.9375C243.215 57.9375 242.57 58.1932 242.11 58.7045C241.65 59.2102 241.42 59.8608 241.42 60.6562V69H238.88V60.2983C238.88 59.5881 238.658 59.017 238.215 58.5852C237.772 58.1534 237.195 57.9375 236.485 57.9375C236.002 57.9375 235.556 58.0653 235.147 58.321C234.744 58.571 234.417 58.9205 234.167 59.3693C233.923 59.8182 233.8 60.3381 233.8 60.929V69H231.252Z" fill="white"/>
<path d="M46.8438 26.0682V14.5455H49.1364V26.0682H46.8438ZM42.233 21.4489V19.1648H53.7557V21.4489H42.233ZM63.7401 29.2898C62.3935 29.2841 61.2429 28.929 60.2884 28.2244C59.3338 27.5199 58.6037 26.4943 58.098 25.1477C57.5923 23.8011 57.3395 22.179 57.3395 20.2812C57.3395 18.3892 57.5923 16.7727 58.098 15.4318C58.6094 14.0909 59.3423 13.0682 60.2969 12.3636C61.2571 11.6591 62.4048 11.3068 63.7401 11.3068C65.0753 11.3068 66.2202 11.6619 67.1747 12.3722C68.1293 13.0767 68.8594 14.0994 69.3651 15.4403C69.8764 16.7756 70.1321 18.3892 70.1321 20.2812C70.1321 22.1847 69.8793 23.8097 69.3736 25.1562C68.8679 26.4972 68.1378 27.5227 67.1832 28.233C66.2287 28.9375 65.081 29.2898 63.7401 29.2898ZM63.7401 27.0142C64.9219 27.0142 65.8452 26.4375 66.5099 25.2841C67.1804 24.1307 67.5156 22.4631 67.5156 20.2812C67.5156 18.8324 67.3622 17.608 67.0554 16.608C66.7543 15.6023 66.3196 14.8409 65.7514 14.3239C65.1889 13.8011 64.5185 13.5398 63.7401 13.5398C62.5639 13.5398 61.6406 14.1193 60.9702 15.2784C60.2997 16.4375 59.9616 18.1051 59.956 20.2812C59.956 21.7358 60.1065 22.9659 60.4077 23.9716C60.7145 24.9716 61.1491 25.7301 61.7116 26.2472C62.2741 26.7585 62.9503 27.0142 63.7401 27.0142ZM79.2322 29.2898C77.8857 29.2841 76.7351 28.929 75.7805 28.2244C74.826 27.5199 74.0959 26.4943 73.5902 25.1477C73.0845 23.8011 72.8317 22.179 72.8317 20.2812C72.8317 18.3892 73.0845 16.7727 73.5902 15.4318C74.1016 14.0909 74.8345 13.0682 75.7891 12.3636C76.7493 11.6591 77.897 11.3068 79.2322 11.3068C80.5675 11.3068 81.7124 11.6619 82.6669 12.3722C83.6214 13.0767 84.3516 14.0994 84.8572 15.4403C85.3686 16.7756 85.6243 18.3892 85.6243 20.2812C85.6243 22.1847 85.3714 23.8097 84.8658 25.1562C84.3601 26.4972 83.63 27.5227 82.6754 28.233C81.7209 28.9375 80.5732 29.2898 79.2322 29.2898ZM79.2322 27.0142C80.4141 27.0142 81.3374 26.4375 82.0021 25.2841C82.6726 24.1307 83.0078 22.4631 83.0078 20.2812C83.0078 18.8324 82.8544 17.608 82.5476 16.608C82.2464 15.6023 81.8118 14.8409 81.2436 14.3239C80.6811 13.8011 80.0107 13.5398 79.2322 13.5398C78.0561 13.5398 77.1328 14.1193 76.4624 15.2784C75.7919 16.4375 75.4538 18.1051 75.4482 20.2812C75.4482 21.7358 75.5987 22.9659 75.8999 23.9716C76.2067 24.9716 76.6413 25.7301 77.2038 26.2472C77.7663 26.7585 78.4425 27.0142 79.2322 27.0142ZM101.621 11.5455V29H98.9794V14.1875H98.8771L94.701 16.9148V14.392L99.0561 11.5455H101.621ZM106.343 29V27.0909L112.249 20.9716C112.88 20.3068 113.4 19.7244 113.809 19.2244C114.224 18.7187 114.533 18.2386 114.738 17.7841C114.942 17.3295 115.045 16.8466 115.045 16.3352C115.045 15.7557 114.908 15.2557 114.636 14.8352C114.363 14.4091 113.991 14.0824 113.519 13.8551C113.048 13.6222 112.516 13.5057 111.925 13.5057C111.3 13.5057 110.755 13.6335 110.289 13.8892C109.823 14.1449 109.465 14.5057 109.215 14.9716C108.965 15.4375 108.84 15.983 108.84 16.608H106.326C106.326 15.5455 106.57 14.6165 107.059 13.821C107.548 13.0256 108.218 12.4091 109.07 11.9716C109.923 11.5284 110.891 11.3068 111.977 11.3068C113.073 11.3068 114.039 11.5256 114.874 11.9631C115.715 12.3949 116.371 12.9858 116.843 13.7358C117.315 14.4801 117.55 15.321 117.55 16.2585C117.55 16.9062 117.428 17.5398 117.184 18.1591C116.945 18.7784 116.528 19.4687 115.931 20.2301C115.335 20.9858 114.505 21.9034 113.442 22.983L109.974 26.6136V26.7415H117.832V29H106.343ZM127.138 29.2386C125.968 29.2386 124.923 29.0369 124.002 28.6335C123.087 28.2301 122.363 27.6705 121.829 26.9545C121.3 26.233 121.016 25.3977 120.977 24.4489H123.653C123.687 24.9659 123.86 25.4148 124.173 25.7955C124.491 26.1705 124.906 26.4602 125.417 26.6648C125.928 26.8693 126.496 26.9716 127.121 26.9716C127.809 26.9716 128.417 26.8523 128.945 26.6136C129.479 26.375 129.897 26.0426 130.198 25.6165C130.499 25.1847 130.65 24.6875 130.65 24.125C130.65 23.5398 130.499 23.0256 130.198 22.5824C129.903 22.1335 129.468 21.7812 128.894 21.5256C128.326 21.2699 127.638 21.142 126.832 21.142H125.357V18.9943H126.832C127.479 18.9943 128.048 18.8778 128.536 18.6449C129.031 18.4119 129.417 18.0881 129.695 17.6733C129.974 17.2528 130.113 16.7614 130.113 16.1989C130.113 15.6591 129.991 15.1903 129.746 14.7926C129.508 14.3892 129.167 14.0739 128.724 13.8466C128.286 13.6193 127.769 13.5057 127.173 13.5057C126.604 13.5057 126.073 13.6108 125.579 13.821C125.09 14.0256 124.692 14.321 124.386 14.7074C124.079 15.0881 123.914 15.5455 123.891 16.0795H121.343C121.371 15.1364 121.65 14.3068 122.178 13.5909C122.712 12.875 123.417 12.3153 124.292 11.9119C125.167 11.5085 126.138 11.3068 127.207 11.3068C128.326 11.3068 129.292 11.5256 130.104 11.9631C130.923 12.3949 131.553 12.9716 131.996 13.6932C132.445 14.4148 132.667 15.2045 132.661 16.0625C132.667 17.0398 132.394 17.8693 131.843 18.5511C131.298 19.233 130.57 19.6903 129.661 19.9233V20.0597C130.82 20.2358 131.718 20.696 132.354 21.4403C132.996 22.1847 133.315 23.108 133.309 24.2102C133.315 25.1705 133.048 26.0312 132.508 26.7926C131.974 27.554 131.244 28.1534 130.317 28.5909C129.391 29.0227 128.332 29.2386 127.138 29.2386ZM148.643 29.2386C147.575 29.2386 146.615 29.0341 145.763 28.625C144.916 28.2102 144.24 27.642 143.734 26.9205C143.229 26.1989 142.959 25.375 142.925 24.4489H145.482C145.544 25.1989 145.876 25.8153 146.479 26.2983C147.081 26.7812 147.803 27.0227 148.643 27.0227C149.314 27.0227 149.908 26.8693 150.425 26.5625C150.947 26.25 151.357 25.821 151.652 25.2756C151.953 24.7301 152.104 24.108 152.104 23.4091C152.104 22.6989 151.95 22.0653 151.643 21.5085C151.337 20.9517 150.913 20.5142 150.374 20.196C149.839 19.8778 149.226 19.7159 148.533 19.7102C148.004 19.7102 147.473 19.8011 146.939 19.983C146.405 20.1648 145.973 20.4034 145.643 20.6989L143.232 20.3409L144.212 11.5455H153.808V13.804H146.402L145.848 18.6875H145.95C146.291 18.358 146.743 18.0824 147.305 17.8608C147.874 17.6392 148.482 17.5284 149.129 17.5284C150.192 17.5284 151.138 17.7812 151.967 18.2869C152.803 18.7926 153.459 19.483 153.936 20.358C154.419 21.2273 154.658 22.2273 154.652 23.358C154.658 24.4886 154.402 25.4972 153.885 26.3835C153.374 27.2699 152.663 27.9687 151.754 28.4801C150.851 28.9858 149.814 29.2386 148.643 29.2386ZM163.663 29.2386C162.441 29.2386 161.362 29.0284 160.424 28.608C159.492 28.1875 158.762 27.608 158.234 26.8693C157.705 26.1307 157.444 25.2898 157.45 24.3466C157.444 23.608 157.594 22.929 157.901 22.3097C158.214 21.6847 158.637 21.1648 159.171 20.75C159.705 20.3295 160.302 20.0625 160.961 19.9489V19.8466C160.092 19.6364 159.396 19.1705 158.873 18.4489C158.35 17.7273 158.092 16.8977 158.097 15.9602C158.092 15.0682 158.327 14.2727 158.805 13.5739C159.288 12.8693 159.95 12.3153 160.79 11.9119C161.631 11.5085 162.589 11.3068 163.663 11.3068C164.725 11.3068 165.674 11.5114 166.509 11.9205C167.35 12.3239 168.012 12.8778 168.495 13.5824C168.978 14.2812 169.222 15.0739 169.228 15.9602C169.222 16.8977 168.955 17.7273 168.427 18.4489C167.898 19.1705 167.211 19.6364 166.364 19.8466V19.9489C167.018 20.0625 167.606 20.3295 168.129 20.75C168.657 21.1648 169.077 21.6847 169.39 22.3097C169.708 22.929 169.87 23.608 169.876 24.3466C169.87 25.2898 169.603 26.1307 169.075 26.8693C168.546 27.608 167.813 28.1875 166.876 28.608C165.944 29.0284 164.873 29.2386 163.663 29.2386ZM163.663 27.0824C164.384 27.0824 165.009 26.9631 165.538 26.7244C166.066 26.4801 166.475 26.142 166.765 25.7102C167.055 25.2727 167.202 24.7614 167.208 24.1761C167.202 23.5682 167.043 23.0312 166.731 22.5653C166.424 22.0994 166.006 21.733 165.478 21.4659C164.95 21.1989 164.344 21.0653 163.663 21.0653C162.975 21.0653 162.364 21.1989 161.83 21.4659C161.296 21.733 160.876 22.0994 160.569 22.5653C160.262 23.0312 160.112 23.5682 160.117 24.1761C160.112 24.7614 160.251 25.2727 160.535 25.7102C160.825 26.142 161.237 26.4801 161.771 26.7244C162.305 26.9631 162.935 27.0824 163.663 27.0824ZM163.663 18.9602C164.242 18.9602 164.756 18.8437 165.205 18.6108C165.654 18.3778 166.006 18.054 166.262 17.6392C166.523 17.2244 166.657 16.7386 166.663 16.1818C166.657 15.6364 166.526 15.1591 166.271 14.75C166.021 14.3409 165.671 14.0256 165.222 13.804C164.773 13.5767 164.254 13.4631 163.663 13.4631C163.06 13.4631 162.532 13.5767 162.077 13.804C161.629 14.0256 161.279 14.3409 161.029 14.75C160.779 15.1591 160.657 15.6364 160.663 16.1818C160.657 16.7386 160.782 17.2244 161.038 17.6392C161.293 18.054 161.646 18.3778 162.094 18.6108C162.549 18.8437 163.072 18.9602 163.663 18.9602ZM172.562 25.5909V23.4602L180.105 11.5455H181.784V14.6818H180.719L175.324 23.2216V23.358H185.662V25.5909H172.562ZM180.838 29V24.9432L180.855 23.9716V11.5455H183.352V29H180.838ZM201.606 11.5455V29H198.964V14.1875H198.862L194.685 16.9148V14.392L199.04 11.5455H201.606ZM206.327 29V27.0909L212.234 20.9716C212.864 20.3068 213.384 19.7244 213.793 19.2244C214.208 18.7187 214.518 18.2386 214.722 17.7841C214.927 17.3295 215.029 16.8466 215.029 16.3352C215.029 15.7557 214.893 15.2557 214.62 14.8352C214.347 14.4091 213.975 14.0824 213.504 13.8551C213.032 13.6222 212.501 13.5057 211.91 13.5057C211.285 13.5057 210.739 13.6335 210.273 13.8892C209.808 14.1449 209.45 14.5057 209.2 14.9716C208.95 15.4375 208.825 15.983 208.825 16.608H206.31C206.31 15.5455 206.555 14.6165 207.043 13.821C207.532 13.0256 208.202 12.4091 209.055 11.9716C209.907 11.5284 210.876 11.3068 211.961 11.3068C213.058 11.3068 214.023 11.5256 214.859 11.9631C215.7 12.3949 216.356 12.9858 216.827 13.7358C217.299 14.4801 217.535 15.321 217.535 16.2585C217.535 16.9062 217.413 17.5398 217.168 18.1591C216.93 18.7784 216.512 19.4687 215.915 20.2301C215.319 20.9858 214.489 21.9034 213.427 22.983L209.958 26.6136V26.7415H217.816V29H206.327ZM220.305 25.5909V23.4602L227.847 11.5455H229.526V14.6818H228.461L223.066 23.2216V23.358H233.404V25.5909H220.305ZM228.58 29V24.9432L228.597 23.9716V11.5455H231.094V29H228.58Z" fill="white"/>
<g clip-path="url(#clip1_114_6414)">
<path d="M5 12H9L11 17L8.5 18.5C9.57096 20.6715 11.3285 22.429 13.5 23.5L15 21L20 23V27C20 27.5304 19.7893 28.0391 19.4142 28.4142C19.0391 28.7893 18.5304 29 18 29C14.0993 28.763 10.4202 27.1065 7.65683 24.3432C4.8935 21.5798 3.23705 17.9007 3 14C3 13.4696 3.21071 12.9609 3.58579 12.5858C3.96086 12.2107 4.46957 12 5 12Z" stroke="white" stroke-width="1.5" stroke-linecap="round" stroke-linejoin="round"/>
<path d="M15 15C15.5304 15 16.0391 15.2107 16.4142 15.5858C16.7893 15.9609 17 16.4696 17 17" stroke="white" stroke-width="1.5" stroke-linecap="round" stroke-linejoin="round"/>
<path d="M15 11C16.5913 11 18.1174 11.6321 19.2426 12.7574C20.3679 13.8826 21 15.4087 21 17" stroke="white" stroke-width="1.5" stroke-linecap="round" stroke-linejoin="round"/>
</g>
<defs>
<clipPath id="clip0_114_6414">
<rect width="24" height="24" fill="white" transform="translate(0 48)"/>
</clipPath>
<clipPath id="clip1_114_6414">
<rect width="24" height="24" fill="white" transform="translate(0 8)"/>
</clipPath>
</defs>
</svg>
